<mxfile host="app.diagrams.net" modified="2024-04-23T11:04:05.668Z" agent="Mozilla/5.0 (Windows NT 10.0; Win64; x64) AppleWebKit/537.36 (KHTML, like Gecko) Chrome/124.0.0.0 Safari/537.36 Edg/124.0.0.0" etag="tPPwnNkRFGF-zpNPx-hz" version="24.2.8" type="github">
  <diagram name="Page-1" id="wwm_jiluzmY_cTOXd-la">
    <mxGraphModel dx="1123" dy="656" grid="1" gridSize="10" guides="1" tooltips="1" connect="1" arrows="1" fold="1" page="1" pageScale="1" pageWidth="850" pageHeight="1100" math="0" shadow="0">
      <root>
        <mxCell id="0" />
        <mxCell id="1" parent="0" />
        <mxCell id="TuoZHAbiJL77ypIdJXH1-1" value="&lt;font style=&quot;font-size: 29px;&quot;&gt;Ejercicio1&lt;/font&gt;" style="text;html=1;align=center;verticalAlign=middle;resizable=0;points=[];autosize=1;strokeColor=none;fillColor=none;" vertex="1" parent="1">
          <mxGeometry x="55" width="150" height="50" as="geometry" />
        </mxCell>
        <mxCell id="TuoZHAbiJL77ypIdJXH1-34" style="edgeStyle=orthogonalEdgeStyle;rounded=0;orthogonalLoop=1;jettySize=auto;html=1;entryX=0;entryY=0.5;entryDx=0;entryDy=0;endArrow=none;endFill=0;" edge="1" parent="1" source="TuoZHAbiJL77ypIdJXH1-3" target="TuoZHAbiJL77ypIdJXH1-5">
          <mxGeometry relative="1" as="geometry" />
        </mxCell>
        <mxCell id="TuoZHAbiJL77ypIdJXH1-3" value="Asunto" style="rounded=0;whiteSpace=wrap;html=1;" vertex="1" parent="1">
          <mxGeometry x="65" y="140" width="120" height="50" as="geometry" />
        </mxCell>
        <mxCell id="TuoZHAbiJL77ypIdJXH1-4" value="Procurador" style="rounded=0;whiteSpace=wrap;html=1;" vertex="1" parent="1">
          <mxGeometry x="695" y="140" width="120" height="50" as="geometry" />
        </mxCell>
        <mxCell id="TuoZHAbiJL77ypIdJXH1-35" style="edgeStyle=orthogonalEdgeStyle;rounded=0;orthogonalLoop=1;jettySize=auto;html=1;endArrow=none;endFill=0;" edge="1" parent="1" source="TuoZHAbiJL77ypIdJXH1-5" target="TuoZHAbiJL77ypIdJXH1-4">
          <mxGeometry relative="1" as="geometry" />
        </mxCell>
        <mxCell id="TuoZHAbiJL77ypIdJXH1-5" value="lleva" style="rhombus;whiteSpace=wrap;html=1;" vertex="1" parent="1">
          <mxGeometry x="375" y="125" width="150" height="80" as="geometry" />
        </mxCell>
        <mxCell id="TuoZHAbiJL77ypIdJXH1-10" value="" style="endArrow=none;html=1;rounded=0;entryX=0.5;entryY=1;entryDx=0;entryDy=0;" edge="1" parent="1" target="TuoZHAbiJL77ypIdJXH1-3">
          <mxGeometry width="50" height="50" relative="1" as="geometry">
            <mxPoint x="125" y="430" as="sourcePoint" />
            <mxPoint x="285" y="250" as="targetPoint" />
          </mxGeometry>
        </mxCell>
        <mxCell id="TuoZHAbiJL77ypIdJXH1-12" style="edgeStyle=orthogonalEdgeStyle;rounded=0;orthogonalLoop=1;jettySize=auto;html=1;" edge="1" parent="1" source="TuoZHAbiJL77ypIdJXH1-11">
          <mxGeometry relative="1" as="geometry">
            <mxPoint x="125" y="225" as="targetPoint" />
          </mxGeometry>
        </mxCell>
        <mxCell id="TuoZHAbiJL77ypIdJXH1-11" value="&lt;b&gt;ID_exp&lt;/b&gt;" style="ellipse;whiteSpace=wrap;html=1;" vertex="1" parent="1">
          <mxGeometry x="25" y="205" width="60" height="40" as="geometry" />
        </mxCell>
        <mxCell id="TuoZHAbiJL77ypIdJXH1-20" style="edgeStyle=orthogonalEdgeStyle;rounded=0;orthogonalLoop=1;jettySize=auto;html=1;" edge="1" parent="1" source="TuoZHAbiJL77ypIdJXH1-14">
          <mxGeometry relative="1" as="geometry">
            <mxPoint x="125" y="280" as="targetPoint" />
          </mxGeometry>
        </mxCell>
        <mxCell id="TuoZHAbiJL77ypIdJXH1-14" value="FechI" style="ellipse;whiteSpace=wrap;html=1;" vertex="1" parent="1">
          <mxGeometry x="25" y="260" width="60" height="40" as="geometry" />
        </mxCell>
        <mxCell id="TuoZHAbiJL77ypIdJXH1-21" style="edgeStyle=orthogonalEdgeStyle;rounded=0;orthogonalLoop=1;jettySize=auto;html=1;" edge="1" parent="1" source="TuoZHAbiJL77ypIdJXH1-15">
          <mxGeometry relative="1" as="geometry">
            <mxPoint x="125" y="330" as="targetPoint" />
          </mxGeometry>
        </mxCell>
        <mxCell id="TuoZHAbiJL77ypIdJXH1-15" value="FechaFin" style="ellipse;whiteSpace=wrap;html=1;" vertex="1" parent="1">
          <mxGeometry x="25" y="310" width="60" height="40" as="geometry" />
        </mxCell>
        <mxCell id="TuoZHAbiJL77ypIdJXH1-29" style="edgeStyle=orthogonalEdgeStyle;rounded=0;orthogonalLoop=1;jettySize=auto;html=1;" edge="1" parent="1" source="TuoZHAbiJL77ypIdJXH1-16">
          <mxGeometry relative="1" as="geometry">
            <mxPoint x="125" y="380" as="targetPoint" />
          </mxGeometry>
        </mxCell>
        <mxCell id="TuoZHAbiJL77ypIdJXH1-16" value="Estado" style="ellipse;whiteSpace=wrap;html=1;" vertex="1" parent="1">
          <mxGeometry x="25" y="360" width="60" height="40" as="geometry" />
        </mxCell>
        <mxCell id="TuoZHAbiJL77ypIdJXH1-26" style="edgeStyle=orthogonalEdgeStyle;rounded=0;orthogonalLoop=1;jettySize=auto;html=1;" edge="1" parent="1" source="TuoZHAbiJL77ypIdJXH1-17">
          <mxGeometry relative="1" as="geometry">
            <mxPoint x="125" y="280" as="targetPoint" />
          </mxGeometry>
        </mxCell>
        <mxCell id="TuoZHAbiJL77ypIdJXH1-17" value="DNI" style="ellipse;whiteSpace=wrap;html=1;" vertex="1" parent="1">
          <mxGeometry x="145" y="260" width="60" height="40" as="geometry" />
        </mxCell>
        <mxCell id="TuoZHAbiJL77ypIdJXH1-27" style="edgeStyle=orthogonalEdgeStyle;rounded=0;orthogonalLoop=1;jettySize=auto;html=1;" edge="1" parent="1" source="TuoZHAbiJL77ypIdJXH1-18">
          <mxGeometry relative="1" as="geometry">
            <mxPoint x="125" y="330" as="targetPoint" />
          </mxGeometry>
        </mxCell>
        <mxCell id="TuoZHAbiJL77ypIdJXH1-18" value="Nombre" style="ellipse;whiteSpace=wrap;html=1;" vertex="1" parent="1">
          <mxGeometry x="145" y="310" width="60" height="40" as="geometry" />
        </mxCell>
        <mxCell id="TuoZHAbiJL77ypIdJXH1-28" style="edgeStyle=orthogonalEdgeStyle;rounded=0;orthogonalLoop=1;jettySize=auto;html=1;" edge="1" parent="1" source="TuoZHAbiJL77ypIdJXH1-19">
          <mxGeometry relative="1" as="geometry">
            <mxPoint x="125" y="380" as="targetPoint" />
          </mxGeometry>
        </mxCell>
        <mxCell id="TuoZHAbiJL77ypIdJXH1-19" value="Apellidos" style="ellipse;whiteSpace=wrap;html=1;" vertex="1" parent="1">
          <mxGeometry x="145" y="360" width="60" height="40" as="geometry" />
        </mxCell>
        <mxCell id="TuoZHAbiJL77ypIdJXH1-30" value="DNI" style="ellipse;whiteSpace=wrap;html=1;" vertex="1" parent="1">
          <mxGeometry x="765" y="220" width="60" height="40" as="geometry" />
        </mxCell>
        <mxCell id="TuoZHAbiJL77ypIdJXH1-31" value="Nombre" style="ellipse;whiteSpace=wrap;html=1;" vertex="1" parent="1">
          <mxGeometry x="765" y="270" width="60" height="40" as="geometry" />
        </mxCell>
        <mxCell id="TuoZHAbiJL77ypIdJXH1-32" value="Apellidos" style="ellipse;whiteSpace=wrap;html=1;" vertex="1" parent="1">
          <mxGeometry x="765" y="320" width="60" height="40" as="geometry" />
        </mxCell>
        <mxCell id="TuoZHAbiJL77ypIdJXH1-33" value="" style="endArrow=none;html=1;rounded=0;entryX=0.5;entryY=1;entryDx=0;entryDy=0;" edge="1" parent="1">
          <mxGeometry width="50" height="50" relative="1" as="geometry">
            <mxPoint x="763.57" y="420" as="sourcePoint" />
            <mxPoint x="763.57" y="180" as="targetPoint" />
          </mxGeometry>
        </mxCell>
        <mxCell id="TuoZHAbiJL77ypIdJXH1-36" value="1" style="text;html=1;align=center;verticalAlign=middle;resizable=0;points=[];autosize=1;strokeColor=none;fillColor=none;" vertex="1" parent="1">
          <mxGeometry x="185" y="118" width="30" height="30" as="geometry" />
        </mxCell>
        <mxCell id="TuoZHAbiJL77ypIdJXH1-37" value="n" style="text;html=1;align=center;verticalAlign=middle;resizable=0;points=[];autosize=1;strokeColor=none;fillColor=none;" vertex="1" parent="1">
          <mxGeometry x="645" y="108" width="30" height="30" as="geometry" />
        </mxCell>
        <mxCell id="TuoZHAbiJL77ypIdJXH1-38" value="1" style="text;html=1;align=center;verticalAlign=middle;resizable=0;points=[];autosize=1;strokeColor=none;fillColor=none;" vertex="1" parent="1">
          <mxGeometry x="645" y="175" width="30" height="30" as="geometry" />
        </mxCell>
        <mxCell id="TuoZHAbiJL77ypIdJXH1-39" value="m&lt;div&gt;&lt;br&gt;&lt;/div&gt;" style="text;html=1;align=center;verticalAlign=middle;resizable=0;points=[];autosize=1;strokeColor=none;fillColor=none;" vertex="1" parent="1">
          <mxGeometry x="195" y="185" width="30" height="40" as="geometry" />
        </mxCell>
        <mxCell id="TuoZHAbiJL77ypIdJXH1-40" value="(n,m)" style="text;html=1;align=center;verticalAlign=middle;resizable=0;points=[];autosize=1;strokeColor=none;fillColor=none;" vertex="1" parent="1">
          <mxGeometry x="415" y="58" width="50" height="30" as="geometry" />
        </mxCell>
        <mxCell id="TuoZHAbiJL77ypIdJXH1-41" value="1,n" style="text;html=1;align=center;verticalAlign=middle;resizable=0;points=[];autosize=1;strokeColor=none;fillColor=none;" vertex="1" parent="1">
          <mxGeometry x="230" y="208" width="40" height="30" as="geometry" />
        </mxCell>
        <mxCell id="TuoZHAbiJL77ypIdJXH1-42" value="0,n&lt;div&gt;&lt;br&gt;&lt;/div&gt;" style="text;html=1;align=center;verticalAlign=middle;resizable=0;points=[];autosize=1;strokeColor=none;fillColor=none;" vertex="1" parent="1">
          <mxGeometry x="630" y="213" width="40" height="40" as="geometry" />
        </mxCell>
        <mxCell id="TuoZHAbiJL77ypIdJXH1-43" value="&lt;font style=&quot;font-size: 29px;&quot;&gt;Ejercicio2&lt;/font&gt;" style="text;html=1;align=center;verticalAlign=middle;resizable=0;points=[];autosize=1;strokeColor=none;fillColor=none;" vertex="1" parent="1">
          <mxGeometry x="35" y="500" width="150" height="50" as="geometry" />
        </mxCell>
      </root>
    </mxGraphModel>
  </diagram>
</mxfile>
